<svg viewBox="0 0 118 118" xmlns="http://www.w3.org/2000/svg"><g fill="#fff"><path d="m116.14 106.2a9.94 9.94 0 0 1 -9.94 9.94h-94.4a9.94 9.94 0 0 1 -9.94-9.94 9.94 9.94 0 0 1 9.94-9.94h94.4a9.94 9.94 0 0 1 9.94 9.94z"/><path d="m108.68 36.64v54.65a9.94 9.94 0 0 1 -9.94 9.94h-79.49a9.94 9.94 0 0 1 -9.94-9.94v-54.65a9.94 9.94 0 0 1 9.94-9.94h79.5a9.94 9.94 0 0 1 9.93 9.94z"/><path d="m98.75 96.26h-79.5a5 5 0 0 1 -5-5v-54.62a5 5 0 0 1 5-5h79.5a5 5 0 0 1 5 5v54.65a5 5 0 0 1 -5 4.97z"/></g><path d="m92.54 47.2h-67.08a3.73 3.73 0 0 1 -3.73-3.73 3.73 3.73 0 0 1 3.73-3.73h67.08a3.73 3.73 0 0 1 3.73 3.73 3.73 3.73 0 0 1 -3.73 3.73zm-36 9.32a3.73 3.73 0 0 0 -3.73-3.73h-27.35a3.73 3.73 0 0 0 -3.73 3.73 3.73 3.73 0 0 0 3.73 3.73h27.33a3.73 3.73 0 0 0 3.73-3.73z" fill="#36373f"/><path d="m92.54 87.57h-67.08a3.73 3.73 0 0 1 -3.73-3.73v-14.9a3.73 3.73 0 0 1 3.73-3.73h67.08a3.73 3.73 0 0 1 3.73 3.73v14.9a3.73 3.73 0 0 1 -3.73 3.73z" fill="#bcbcbc"/><path d="m33 85.39-.52.52-4.26 4.26a1.63 1.63 0 0 1 -1.15.48 1.63 1.63 0 0 1 -1.07-.46l-4.26-4.26-.52-.52a3.82 3.82 0 0 1 0-5.4 3.82 3.82 0 0 1 5.4 0l.52.52.52-.52a3.82 3.82 0 0 1 5.34-.01 3.82 3.82 0 0 1 0 5.39z" fill="#ea0c51"/><path d="m85.83 67.12-5 6.62a2.48 2.48 0 0 1 -4 0l-5-6.62a2.48 2.48 0 0 1 -.5-1.49v-58.8a5 5 0 0 1 5-5h5a5 5 0 0 1 5 5v58.79a2.49 2.49 0 0 1 -.5 1.5z" fill="#fff"/><path d="m84.46 68.94-3.6 4.8a2.48 2.48 0 0 1 -4 0l-3.6-4.8z" fill="#ea0c51"/><path d="m86.33 6.83v5h-14.91v-5a5 5 0 0 1 5-5h5a5 5 0 0 1 4.91 5z" fill="#ea0c51"/><path d="m109.95 95a11.75 11.75 0 0 0 .6-3.71v-54.65a11.81 11.81 0 0 0 -11.8-11.8h-10.56v-18a6.84 6.84 0 0 0 -6.83-6.84h-5a6.84 6.84 0 0 0 -6.83 6.83v18h-50.28a11.81 11.81 0 0 0 -11.8 11.8v54.66a11.75 11.75 0 0 0 .6 3.71 11.8 11.8 0 0 0 3.75 23h94.4a11.8 11.8 0 0 0 3.75-23zm-36.67-88.17a3.11 3.11 0 0 1 3.11-3.11h5a3.11 3.11 0 0 1 3.11 3.11v3.11h-11.22zm11.18 6.83v43.48h-3.72v-43.48zm-11.18 0h3.72v43.48h-3.72zm0 47.2h11.18v4.76a.63.63 0 0 1 -.12.37l-5 6.62a.62.62 0 0 1 -1 0l-5-6.62a.63.63 0 0 1 -.12-.37v-4.76zm-62.1-24.22a8.08 8.08 0 0 1 8.07-8.07h50.31v37.05a4.38 4.38 0 0 0 .87 2.61l5 6.62a4.35 4.35 0 0 0 7 0l5-6.62a4.37 4.37 0 0 0 .87-2.61v-37.05h10.45a8.08 8.08 0 0 1 8.07 8.07v54.65a8.08 8.08 0 0 1 -8.07 8.07h-79.5a8.08 8.08 0 0 1 -8.07-8.07zm95 77.63h-94.38a8.07 8.07 0 0 1 -2-15.9 11.79 11.79 0 0 0 9.44 4.72h79.51a11.79 11.79 0 0 0 9.44-4.72 8.07 8.07 0 0 1 -2 15.9zm-66.45-5.59a1.86 1.86 0 0 1 -1.86 1.86h-19.87a1.86 1.86 0 1 1 0-3.73h19.88a1.86 1.86 0 0 1 1.87 1.87zm62.11 0a1.86 1.86 0 0 1 -1.86 1.86h-37.25a1.86 1.86 0 1 1 0-3.73h37.27a1.86 1.86 0 0 1 1.85 1.87zm-45.71 0a1.86 1.86 0 0 1 -1.86 1.86h-.27a1.86 1.86 0 1 1 0-3.73h.25a1.86 1.86 0 0 1 1.89 1.87zm-7.7 0a1.86 1.86 0 0 1 -1.86 1.86h-.25a1.86 1.86 0 1 1 0-3.73h.25a1.86 1.86 0 0 1 1.87 1.87z" fill="#36373f"/></svg>