<svg viewBox="0 0 107 107" xmlns="http://www.w3.org/2000/svg"><g fill="#fff"><path d="m106.77 29.28v77.49l-25.88-9.2-6.91-38.75 6.91-38.75z"/><path d="m80.89 20.07v77.5l-25.89 9.2-4.6-38.74 4.6-38.75z"/><path d="m55 29.28v77.49l-25.89-9.2-6.9-38.75 6.9-38.75z"/><path d="m27.61 18.57v77.5l-25.88 9.2v-77.49z"/></g><path d="m89.82 25.11c0 18.72-21.14 36.06-21.14 36.06a3.7 3.7 0 0 1 -4.49 0s-21.13-17.34-21.13-36.06a23.38 23.38 0 0 1 46.76 0z" fill="#ea0c51"/><path d="m66.44 36.87a11.76 11.76 0 1 1 11.77-11.76 11.78 11.78 0 0 1 -11.77 11.76z" fill="#fff"/><g fill="#36373f"><path d="m105.85 26.15-8.43-3a1.73 1.73 0 1 0 -1.16 3.25l7.29 2.6v73.83l-22.44-8v-34.32a1.73 1.73 0 1 0 -3.45 0v34.34l-22.44 8v-42.34a1.73 1.73 0 0 0 -3.45 0v42.32l-22.44-8v-60.15a1.73 1.73 0 0 0 -3.45 0v60.17l-22.44 8v-73.85l22.44-8v6.76a1.73 1.73 0 0 0 3.45 0v-6.76l6.44 2.29a1.73 1.73 0 0 0 1.16-3.25l-8.74-3.11-.26-.07h-.27-.27l-.26.07-25.98 9.22a1.73 1.73 0 0 0 -1.15 1.63v77.5a1.73 1.73 0 0 0 2.3 1.63l25.31-9 25.31 9 .26.07h.27.27l.26-.07 25.31-9 25.31 9a1.73 1.73 0 0 0 2.3-1.63v-77.5a1.73 1.73 0 0 0 -1.05-1.63z"/><path d="m63.1 62.5a5.42 5.42 0 0 0 6.68 0 80.48 80.48 0 0 0 10.83-11.27c7.26-9.17 10.94-18 10.94-26.12a25.11 25.11 0 1 0 -50.21 0c0 8.16 3.68 17 10.94 26.12a80.47 80.47 0 0 0 10.82 11.27zm3.34-59.05a21.68 21.68 0 0 1 21.66 21.66c0 17.68-20.3 34.56-20.5 34.73a2 2 0 0 1 -2.3 0c-.21-.17-20.51-17.05-20.51-34.73a21.68 21.68 0 0 1 21.65-21.66z"/><path d="m79.93 25.11a13.49 13.49 0 1 0 -13.49 13.49 13.5 13.5 0 0 0 13.49-13.49zm-23.53 0a10 10 0 1 1 10 10 10 10 0 0 1 -9.99-10z"/></g></svg>