<svg enable-background="new 0 0 684.1 90.2" viewBox="0 0 684.1 90.2" xmlns="http://www.w3.org/2000/svg"><path d="m684.1 64.7h-3.5v3.6h-2.5v8.6h-4.8v-7.2h-4.4l.1-23.9h-9.2v-3.7h-8.3v1.9h-1.4v23.6h-8l.1-20.6h-5.2v3.3h-5.7v6.3h-3.8v-8.4h-7.8v-2.4h-8.1v23h-3l.1-18.5h-5.2l.1-24.2-9.4-.1v23.9h-4.6l-1.5 2h-2.5v4.7h-2.2v11.3h-2.2v7.2h-3.1v-7.8h-3.7v-3.4h-3.6v3l-14.2-.1v2.8h-4.2v4.4h-2.5v-8.4h-3.9v-9.1h-1.4v-13.5h-8.7v22.3h-1.3v5.7h-1.4v2.3h-3.2v-16.2h-.9v-6.1h-1.5l.1-5.4h-11.6v19.9h-2v-13.5h-1.4v-2.3h-4.4v2.5h-1.2v15.2h-2.1v4.8h-1.1l.1-17.7h-2.4v-3.3h-4.8v-2.8h-4v-2.8h-5.8v1.3h-2.7v2.6h-5.9v3.7h-3l.1-5.9h-1.9v-1.7l-4.1-.1v-2.8h-5.9v2.8h-2.5v2.7h-2.6v-5.5h-7.5v-2.6h-5.8v3.6h-5.3l.1-15.1-5-.1v-2.5h-5.9-4.6v5.1h-2.3v26.1h-2.4v-7.2h-3.9v-3.8h-8.5v3.6h-3.8v-10.8h-3.1v-4.4h-13.1v13.7h-9v16.8h-11.9l.1-63.4h-4.7v-1.7h-7.9v3.6h-1.1l-.1 60h-9v-16.7h-3.4v-3.8h-13.3v8.9h-2v25.6h-6v-10.3h-4v-2.9h-3.9v2.9h-3v10.7h-3.7v-33.9h-2.9v-2.9h-9.7v2.1h-1.5v-3.2h-6.4l-.1 38.1h-12.8l.1-26.1h-2.5v-2.4h-5.4l-1.5 2h-1.5l-.1 23.3h-3.7v4.7l-2.7-.1.1-22.3h-3.3v-2.1h-3.7v-2.9h-3.1l-.1 6.1h-2.1l-.1 21h-4.5l.1-45.9h-4.4v-5l-14.5-.1v5.3h-2.5v8.6h-1.5l-.1 35h-13.1v-9.3h-3.5v-3h-5.8v3h-2l-.1 11.8h-3.2v-16.3h-5v-3.1h-5.7v-3h-5.5v3.2h-2.5v18.5h-7.5v-10.1h-14.3v11.1h-4.7v-16.6h-14.8v5.4h-2.6v-3.3h-3v3.3h-2.8v-16.6h-2.6v-2.3h-6.4v3.1h-2.2v27.8h-3.3v-31h-3.4v-2.5h-5.1v3h-2.2l-.1 30.6h-18.7l.1-21.2h-4.7v-2.5l-9.1-.1v2.6h-4v21.2h-3.5v-1.9h-2.8l.1-15.1h-2.7v-2.8h-4.8v5.1h-1.6v-2.6h-3.9v2.1h-3.7v12.7h-5v2.5h-4.4v-1.9h-3.4v-2.3h-6.4v-2.8h-3.6v3h-3.7v4h-6.9v9h.3v.2l28.4-.2h655.3v-4z" fill="#fff"/></svg>