<svg enable-background="new 0 0 684.1 90.2" viewBox="0 0 684.1 90.2" xmlns="http://www.w3.org/2000/svg"><path d="m0 64.7h3.4v3.6h2.5v8.6h4.9v-7.2h4.3v-23.9h9.2v-3.7h8.2v1.9h1.4l.1 23.6h7.9v-20.6h5.1v3.3h5.8v6.3h3.7v-8.4h7.8v-2.4h8.1l.1 23h2.9v-18.5h5.1v-24.2l9.3-.1.1 23.9h4.6l1.5 2h2.5v4.7h2.1l.1 11.3h2.1l.1 7.2h3.1v-7.8h3.7v-3.4h3.6v3l14.2-.1v2.8h4.2v4.4h2.5v-8.4h3.9l-.1-9.1h1.4v-13.5h8.7l.1 22.3h1.2v5.7h1.4v2.3h3.3v-16.2h.9v-6.1h1.4v-5.4h11.5l.1 19.9h2v-13.5h1.4v-2.3h4.3v2.5h1.3v15.2h2v4.8h1.1v-17.7h2.3v-3.3h4.9v-2.8h4v-2.8h5.8v1.3h2.6v2.6h6v3.7h2.9v-5.9h1.9v-1.7l4-.1v-2.8h5.9v2.8h2.5v2.7h2.7v-5.5h7.5v-2.6h5.7v3.6h5.3v-15.1l5-.1v-2.5h5.9 4.5v5.1h2.4v26.1h2.3v-7.2h3.9v-3.8h8.6v3.6h3.7v-10.8h3.1v-4.4h13.1v13.7h9.1v16.8h11.8v-63.4h4.6v-1.7h8v3.6h1.1l.1 60h9v-16.7h3.4v-3.8h13.2l.1 8.9h2v25.6h5.9v-10.3h4.1v-2.9h3.9v2.9h2.9v10.7h3.8l-.1-33.9h3v-2.9h9.6l.1 2.1h1.5v-3.2h6.4v38.1h12.8v-26.1h2.5v-2.4h5.4l1.4 2h1.6v23.3h3.8v4.7l2.6-.1v-22.3h3.3v-2.1h3.7v-2.9h3.1v6.1h2.2v21h4.6l-.1-45.9h4.3v-5l14.5-.1v5.3h2.5v8.6h1.6l.1 35h13v-9.3h3.6v-3h5.8v3h2v11.8h3.3v-16.3h5l-.1-3.1h5.8v-3h5.5v3.2h2.5v18.5h7.5v-10.1h14.3v11.1h4.7v-16.6h14.8v5.4h2.6v-3.3h3v3.3h2.8v-16.6h2.6v-2.3h6.4v3.1h2.2v27.8h3.3l-.1-31h3.5v-2.5h5.1v3h2.2v30.6h18.7v-21.2h4.7v-2.5l9.1-.1v2.6h4v21.2h3.4v-1.9h2.8v-15.1h2.7l-.1-2.8h4.9v5.1h1.5v-2.6h3.9v2.1h3.8v12.7h5v2.5h4.4l-.1-1.9h3.5v-2.3h6.4v-2.8h3.5v3h3.8v4h6.9v9h-.4v.2l-28.4-.2h-655.2v-4h-.1z" fill="#fff"/></svg>