<svg enable-background="new 0 0 96 95.8" viewBox="0 0 96 95.8" xmlns="http://www.w3.org/2000/svg"><circle cx="47.9" cy="47.6" fill="none" r="44.9" stroke="#ea0c51" stroke-miterlimit="10" stroke-width="5"/><g fill="#ea0c51"><path d="m24.3 70.9c-.6 0-1.1-.5-1.1-1.1v-6.4c0-3.5 2.2-4.4 3.4-4.4h4.2c1.8 0 3.1-.5 4-1.5 1.9-2.1 1.5-5.7 1.5-5.7 0-.3.1-.6.3-.8l2.4-2.8-1.9-1.2c-.3-.2-.5-.5-.5-.8s.1-.7.3-.9l1.8-1.8-1.9-2.6c-.5-.7-.5-1.3-.4-1.7.2-.9 1-1.2 1.2-1.3l4.8-2c.3-.1.5-.3.5-.4.1-.3 0-.6-.1-.8l-5.1-9.3c-3.3-6-3.3-9.3-3.3-9.5v-3.2c0-.6.5-1.1 1.1-1.1s1.1.5 1.1 1.1v3.2s.1 3 3 8.4l5.1 9.3c.1.1.7 1.3.3 2.6-.2.5-.7 1.3-1.8 1.7l-4.5 1.9 2.3 3.1c.3.4.3 1-.1 1.4l-1.5 1.5.9.5c.1.1.9.5 1 1.4.1.4 0 1-.5 1.6l-2.2 2.6c.1 1.3 0 4.6-2.1 7-1.3 1.5-3.2 2.3-5.6 2.3h-4.2c-.3 0-1.2.2-1.2 2.2v6.4c-.1.6-.5 1.1-1.2 1.1z"/><path d="m29.3 26.7c1.2 0 2.1-1 2.1-2.1 0-1.2-1-2.1-2.1-2.1-1.2 0-2.1 1-2.1 2.1-.1 1.1.9 2.1 2.1 2.1"/><path d="m70.3 79.7c-.1 0-.3 0-.4-.1-.6-.2-.8-.9-.6-1.4l3.5-8.6v-9.3c0-1-.9-2.1-1.7-2.1-.3 0-1.7.1-1.7 1.4v2.6c0 .6-.5 1.2-1.1 1.1-.6 0-1.1-.5-1.1-1.1v-3.7c0-1-.8-1.7-1.7-1.7s-1.7.8-1.7 1.7v3.7c0 .6-.5 1.1-1.1 1.1s-1.1-.5-1.1-1.1v-4.7c0-1-.8-1.7-1.7-1.7-2 0-1.8 2-1.9 2.1v4.4c0 .6-.5 1.1-1.1 1.1s-1.1-.5-1.1-1.1v-19.4c0-.9-.9-1.7-1.9-1.7s-1.9.8-1.9 1.7v26.7l3.8 8.5c.2.6 0 1.2-.6 1.5-.6.2-1.2 0-1.4-.6l-3.9-8.7c-.1-.1-.1-.3-.1-.4v-27c0-2.2 1.8-3.9 4.1-3.9s4.1 1.8 4.1 3.9v10.9c.6-.3 1.2-.5 1.9-.5 1.4 0 2.6.8 3.3 1.9.6-.5 1.5-.8 2.3-.8 1.5 0 2.8.8 3.4 2.1.6-.4 1.4-.6 2.2-.6 2.3 0 3.9 2.3 3.9 4.3v9.5c0 .1 0 .3-.1.4l-3.6 8.9c-.1.4-.5.7-1 .7z"/></g></svg>