<svg enable-background="new 0 0 286.4 286.4" viewBox="0 0 286.4 286.4" xmlns="http://www.w3.org/2000/svg"><g fill="#ce1b1b"><path d="m106.1 176.1c-3.9 0-7 3.1-7 7v31.7l-26.7-35.8c-1.8-2.4-5-3.4-7.8-2.5-2.9.9-4.8 3.6-4.8 6.6v49.1c0 3.9 3.1 7 7 7s7-3.1 7-7v-27.9l26.6 35.9c1.3 1.8 3.4 2.8 5.6 2.8.7 0 1.5-.1 2.2-.4 2.9-.9 4.8-3.6 4.8-6.6v-52.9c.1-3.8-3.1-7-6.9-7z"/><path d="m219.5 176.1c-3.9 0-7 3.1-7 7v21.8l-4.4-7.9c-1.2-2.2-3.5-3.6-6.1-3.6-2.5-.1-4.9 1.3-6.1 3.5l-5.4 9.3v-23c0-3.9-3.1-7-7-7s-7 3.1-7 7v49.1c0 3.2 2.1 5.9 5.2 6.8 3.1.8 6.3-.5 7.9-3.3l12.2-21.1 11.5 21c1.2 2.3 3.6 3.6 6.1 3.6.6 0 1.2-.1 1.7-.2 3.1-.8 5.3-3.6 5.3-6.8v-49.1c.1-3.9-3-7.1-6.9-7.1z"/><path d="m160.6 190.1c3.9 0 7-3.1 7-7s-3.1-7-7-7h-29.2c-3.9 0-7 3.1-7 7v49.1c0 3.9 3.1 7 7 7h29.2c3.9 0 7-3.1 7-7s-3.1-7-7-7h-22.2v-10.5h22.2c3.9 0 7-3.1 7-7s-3.1-7-7-7h-22.2v-10.5h22.2z"/><path d="m243.1 133.8-94.2-130.9c-1.3-1.8-3.4-2.9-5.7-2.9s-4.4 1.1-5.7 2.9l-94.2 130.9c-13 3.3-22.7 15.1-22.7 29.2v93.4c0 16.6 13.5 30.1 30.1 30.1h185.1c16.6 0 30.1-13.5 30.1-30.1v-93.4c-.1-14.1-9.8-25.9-22.8-29.2zm-99.9-114.8 82 113.9h-164zm108.6 237.3c0 8.9-7.2 16.1-16.1 16.1h-185.1c-8.9 0-16.1-7.2-16.1-16.1v-93.4c0-8.9 7.2-16.1 16.1-16.1h185.1c8.9 0 16.1 7.2 16.1 16.1z"/><path d="m47.5 152.3c-1.8 0-3.7.7-5 2.1-1.3 1.3-2 3.1-2 4.9s.7 3.6 2 4.9 3.1 2.1 5 2.1 3.6-.8 5-2.1c1.3-1.3 2-3.1 2-4.9 0-1.9-.8-3.6-2-4.9-1.4-1.4-3.2-2.1-5-2.1z"/><path d="m238.9 152.3c-1.8 0-3.6.7-4.9 2.1-1.3 1.3-2.1 3.1-2.1 4.9s.8 3.6 2.1 4.9 3.1 2.1 4.9 2.1 3.6-.8 4.9-2.1 2.1-3.1 2.1-4.9c0-1.9-.7-3.6-2.1-4.9-1.3-1.4-3.1-2.1-4.9-2.1z"/></g></svg>