<svg enable-background="new 0 0 196.1 196.1" viewBox="0 0 196.1 196.1" xmlns="http://www.w3.org/2000/svg"><path d="m168.5 69.6-14.8-10.9.5-.7c2.5-3.3 1.7-8-1.6-10.5l-14.8-10.9 1.2-1.6c2.5-3.3 1.7-8-1.6-10.5l-20.7-15.4c-1.6-1.2-3.6-1.7-5.6-1.4s-3.7 1.4-4.9 3l-1.2 1.6-14.8-10.8c-3.3-2.5-8-1.8-10.4 1.5l-17.9 24.3-5.2-2.8c-1.9-1-4-1.2-6-.5s-3.6 2.2-4.4 4.1l-21.1 49.9c-1 2.4-.7 5.1.7 7.2l38.7 56.6-6.1 45.7c-.6 4.1 2.3 7.9 6.4 8.4.3 0 .7.1 1 .1 3.7 0 6.9-2.7 7.4-6.5l6.5-48.6c.2-1.8-.2-3.7-1.2-5.2l-38-55.6 16.3-38.5 42.1 22.5-5.3 7.2-14.8-10.9c-3.3-2.5-8-1.7-10.5 1.6s-1.7 8 1.6 10.5l20.8 15.3 20.8 15.3 20.8 15.3c1.3 1 2.9 1.5 4.4 1.5 1.2 0 2.5-.3 3.6-.9l-1 8.4-14.4 15.7c-1.4 1.5-2.1 3.5-2 5.5l2.2 40.4c.2 4 3.5 7.1 7.5 7.1h.4c4.1-.2 7.3-3.8 7.1-7.9l-2-37.3 13.9-15.1c1.1-1.2 1.7-2.6 1.9-4.2l4.3-35.7 11.7-15.8c2.5-3.4 1.8-8-1.5-10.5zm-81.1-51.6 8.7 6.4-11.2 15.2-9.7-5.2zm10.9 28.7 15.5-21.1 8.7 6.4-14.5 19.9zm18.5 18.5 1.1-1.5 11.1-15 8.7 6.4-.5.7-22.7 30.8-8.7-6.4zm18.5 36.8-8.7-6.4 18.3-24.8 8.7 6.4-8.6 11.6z" fill="#05c190"/></svg>