<svg enable-background="new 0 0 788 103.9" viewBox="0 0 788 103.9" xmlns="http://www.w3.org/2000/svg"><path d="m788 74.5h-4v4.2h-2.9v9.9h-5.5v-8.3h-5.1l.1-27.5h-10.6v-4.3h-9.6v2.2h-1.6v27.2h-9.2l.1-23.8h-6v3.8h-6.5v7.3h-4.4v-9.7h-9v-2.7h-9.3v26.4h-3.5l.1-21.3h-5.9l.1-27.8-10.9-.2v27.6h-5.3l-1.7 2.3h-2.9v5.4h-2.5v13h-2.5v8.3h-3.6v-9h-4.3v-3.9h-4.1v3.5l-16.4-.2v3.3h-4.8v5h-2.9v-9.6h-4.5v-10.5h-1.6v-15.6h-10v25.7h-1.5v6.6h-1.6v2.6h-3.7v-18.6h-1v-7.1h-1.8l.1-6.2h-13.3v22.9h-2.3v-15.5h-1.6v-2.7h-5.1v2.9h-1.4v17.5h-2.4v5.6h-1.3l.1-20.4h-2.7v-3.8h-5.5v-3.2h-4.7v-3.3h-6.6v1.5h-3.1v3h-6.8v4.3h-3.5l.1-6.8h-2.2v-2l-4.7-.1v-3.2h-6.8v3.2h-2.9v3.1h-3v-6.3h-8.6v-3h-6.7v4.1h-6.1l.1-17.4-5.7-.1v-2.9h-6.8-5.3v5.9h-2.7v30.1h-2.7v-8.3h-4.5v-4.4h-9.8v4.2h-4.4v-12.5h-3.6v-5h-15.1v15.7h-10.3v19.4h-13.7l.1-73h-5.4v-2h-9.1v4.1h-1.3l-.1 69.2h-10.4v-19.3h-3.9v-4.4h-15.3v10.3h-2.3v29.5h-6.9v-11.9h-4.6v-3.3h-4.5v3.3h-3.5v12.3h-4.3v-39h-3.3v-3.3h-11.2v2.4h-1.7v-3.7h-7.4l-.1 43.9h-14.7l.1-30.1h-2.9v-2.8h-6.2l-1.7 2.4h-1.8l-.1 26.8h-4.2v5.4l-3.2-.1.2-25.7h-3.8v-2.4h-4.3v-3.4h-3.6l-.1 7.1h-2.4l-.1 24.2h-5.2l.1-52.9h-5.1v-5.8l-16.7-.1v6.1h-2.8v9.9h-1.8l-.1 40.3h-15.1v-10.7h-4v-3.4h-6.7v3.4h-2.3l-.1 13.6h-3.7v-18.8h-5.7v-3.5h-6.6v-3.5h-6.4v3.7h-2.8v21.3h-8.7v-11.6h-16.4v12.8h-5.5v-19.2h-17v6.3h-3v-3.8h-3.5v3.8h-3.2v-19.2h-3v-2.6h-7.3v3.6h-2.6v32h-3.8v-35.7h-3.9v-2.9h-5.9v3.5h-2.5l-.1 35.2h-21.6l.2-24.4h-5.5v-2.9l-10.4-.1v3h-4.6v24.4h-4.1v-2.2h-3.2l.1-17.4h-3.1v-3.2h-5.5v5.9h-1.9v-3h-4.5v2.4h-4.2v14.6h-5.8v2.9h-5.1v-2.2h-3.9v-2.6h-7.3v-3.3h-4.2v3.5h-4.3v4.6h-7.9v10.4h.3v.2l32.8-.2h754.8v-4.6z" fill="#3c3c3b"/></svg>