<svg enable-background="new 0 0 788 103.9" viewBox="0 0 788 103.9" xmlns="http://www.w3.org/2000/svg"><path d="m.1 99.1v4.6h754.8l32.8.2v-.2h.3v-10.4h-7.9v-4.6h-4.3v-3.5h-4.2v3.3h-7.3v2.6h-3.9v2.2h-5.1v-2.9h-5.8v-14.6h-4.2v-2.4h-4.5v3h-1.9v-5.9h-5.5v3.2h-3.1l.1 17.4h-3.2v2.2h-4.1v-24.4h-4.6v-3l-10.4.1v2.9h-5.5l.2 24.4h-21.6l-.1-35.2h-2.5v-3.5h-5.9v2.9h-3.9v35.7h-3.8v-32h-2.6v-3.6h-7.3v2.6h-3v19.2h-3.2v-3.8h-3.5v3.8h-3v-6.3h-17v19.2h-5.5v-12.8h-16.4v11.6h-8.7v-21.3h-2.8v-3.7h-6.4v3.5h-6.6v3.5h-5.7v18.8h-3.7l-.1-13.6h-2.3v-3.4h-6.7v3.4h-4v10.7h-15.1l-.1-40.3h-1.8v-9.9h-2.8v-6.1l-16.7.1v5.8h-5.1l.1 52.9h-5.2l-.1-24.2h-2.4l-.1-7.1h-3.6v3.4h-4.3v2.4h-3.8l.2 25.7-3.2.1v-5.4h-4.2l-.1-26.8h-1.8l-1.7-2.4h-6.2v2.8h-2.9l.1 30.1h-14.7l-.1-43.9h-7.4v3.7h-1.7v-2.4h-11.2v3.3h-3.3v39h-4.3v-12.3h-3.5v-3.3h-4.5v3.3h-4.6v11.9h-6.9v-29.5h-2.3v-10.3h-15.3v4.4h-3.9v19.3h-10.4l-.1-69.2h-1.3v-4.1h-9.1v2h-5.4l.1 73h-13.7v-19.4h-10.3v-15.7h-15.1v5h-3.6v12.5h-4.4v-4.2h-9.8v4.4h-4.5v8.3h-2.7v-30.1h-2.7v-5.9h-5.3-6.8v2.9l-5.7.1.1 17.4h-6.1v-4.1h-6.7v3h-8.6v6.3h-3v-3.1h-2.9v-3.2h-6.8v3.2l-4.7.1v2h-2.2l.1 6.8h-3.5v-4.3h-6.8v-3h-3.1v-1.5h-6.6v3.3h-4.7v3.2h-5.5v3.8h-2.7l.1 20.4h-1.3v-5.6h-2.4v-17.5h-1.4v-2.9h-5.1v2.7h-1.6v15.5h-2.3v-22.9h-13.3l.1 6.2h-1.8v7.1h-1v18.6h-3.7v-2.6h-1.6v-6.6h-1.5v-25.7h-10v15.6h-1.6v10.5h-4.5v9.6h-2.9v-5h-4.8v-3.3l-16.4.2v-3.5h-4.1v3.9h-4.3v9h-3.6v-8.3h-2.5v-13h-2.5v-5.4h-2.9l-1.7-2.3h-5.3v-27.6l-10.9.2.1 27.8h-5.9l.1 21.3h-3.5v-26.4h-9.3v2.7h-9v9.7h-4.4v-7.3h-6.5v-3.8h-6l.1 23.8h-9.2v-27.2h-1.6v-2.2h-9.6v4.3h-10.6l.1 27.5h-5.1v8.3h-5.5v-9.9h-2.9v-4.2h-4z" fill="#3c3c3b"/></svg>