<svg enable-background="new 0 0 536.1 536.1" viewBox="0 0 536.1 536.1" xmlns="http://www.w3.org/2000/svg"><path d="m147.1 91.1c0-38 30.8-68.7 68.7-68.7s68.7 30.8 68.7 68.7-30.8 68.7-68.7 68.7-68.7-30.8-68.7-68.7zm101.8 115.5c.7-15 5.8-28.8 14.1-40.3-5.8-1.2-11.8-1.9-18-1.9h-58.3c-6.1 0-12.2.6-17.9 1.8 8.8 12.2 14.1 27.2 14.2 43.3 10.7-5.9 23-9.3 36.1-9.3 10.5.2 20.6 2.4 29.8 6.4zm11.6 6.2c20 12.5 34 33.7 36.5 58.3 8.1 3.8 17.2 6 26.7 6 35 0 63.3-28.3 63.3-63.3s-28.3-63.3-63.3-63.3c-34.6-.1-62.7 27.8-63.2 62.3zm-41.5 129.6c35 0 63.3-28.4 63.3-63.3 0-35-28.3-63.3-63.3-63.3s-63.3 28.3-63.3 63.3 28.4 63.3 63.3 63.3zm26.9 4.3h-53.7c-44.7 0-81.1 36.4-81.1 81.1v65.7l.2 1 4.5 1.4c42.7 13.3 79.7 17.8 110.2 17.8 59.6 0 94.1-17 96.2-18.1l4.2-2.1h.4v-65.7c.1-44.7-36.2-81.1-80.9-81.1zm104.7-65.3h-53.3c-.6 21.3-9.7 40.5-24.1 54.4 39.7 11.8 68.8 48.7 68.8 92.2v20.2c52.6-1.9 83-16.8 85-17.9l4.2-2.2h.4v-65.7c.1-44.7-36.3-81-81-81zm14.3-132.3c20 12.5 34 33.7 36.5 58.3 8.1 3.8 17.2 6 26.7 6 35 0 63.3-28.3 63.3-63.3s-28.3-63.3-63.3-63.3c-34.6-.1-62.7 27.8-63.2 62.3zm90.1 68.6h-53.3c-.6 21.3-9.7 40.5-24.1 54.3 39.7 11.8 68.8 48.7 68.8 92.2v20.2c52.6-1.9 83-16.8 85-17.9l4.2-2.1h.5v-65.7c0-44.7-36.4-81-81.1-81zm-347.1 59.3c12.4 0 23.9-3.6 33.7-9.8 3.1-20.2 14-37.9 29.5-50 .1-1.2.2-2.4.2-3.6 0-35-28.4-63.3-63.3-63.3-35 0-63.3 28.3-63.3 63.3-.1 35.1 28.3 63.4 63.2 63.4zm56.9 58.7c-14.3-13.7-23.4-32.8-24.1-54.1-2-.1-3.9-.3-5.9-.3h-53.7c-44.7.1-81.1 36.4-81.1 81.1v65.7l.2 1 4.5 1.4c34.2 10.7 64.8 15.6 91.3 17.2v-19.8c0-43.5 29.1-80.4 68.8-92.2z" fill="#1cb78e"/></svg>